<?xml version="1.0" encoding="utf-8"?>
<!-- Generator: Adobe Illustrator 25.4.1, SVG Export Plug-In . SVG Version: 6.00 Build 0)  -->
<svg version="1.1" xmlns="http://www.w3.org/2000/svg" xmlns:xlink="http://www.w3.org/1999/xlink" x="0px" y="0px"
	 viewBox="0 0 750 500" style="enable-background:new 0 0 750 500;" xml:space="preserve">
<style type="text/css">
	.st0{fill:#E0E0E0;}
	.st1{fill:#FAFAFA;}
	.st2{fill:#EBEBEB;}
	.st3{fill:#F5F5F5;}
	.st4{fill:#FFFFFF;}
	.st5{fill:#455A64;}
	.st6{fill:#FEBE00;stroke:#1A2E35;stroke-linecap:round;stroke-linejoin:round;stroke-miterlimit:10;}
	.st7{fill:#FFFFFF;stroke:#1A2E35;stroke-linecap:round;stroke-linejoin:round;stroke-miterlimit:10;}
	.st8{fill:none;stroke:#1A2E35;stroke-width:2;stroke-linecap:round;stroke-linejoin:round;stroke-miterlimit:10;}
	.st9{fill:none;stroke:#1A2E35;stroke-linecap:round;stroke-linejoin:round;}
	.st10{fill:none;stroke:#1A2E35;stroke-linecap:round;stroke-linejoin:round;stroke-dasharray:0.9953,2.9858;}
	.st11{fill:none;stroke:#1A2E35;stroke-linecap:round;stroke-linejoin:round;stroke-dasharray:1.0029,3.0088;}
	.st12{fill:#1A2E35;stroke:#1A2E35;stroke-linecap:round;stroke-linejoin:round;stroke-miterlimit:10;}
	.st13{fill:none;stroke:#FFFFFF;stroke-linecap:round;stroke-linejoin:round;stroke-miterlimit:10;}
	.st14{fill:none;stroke:#1A2E35;stroke-linecap:round;stroke-linejoin:round;stroke-miterlimit:10;}
	.st15{fill:#FEBE00;}
	.st16{fill:#263238;}
	.st17{fill:#FFBE9D;}
	.st18{fill:#EB996E;}
	.st19{opacity:0.3;}
</style>
<g >
	<g>
		<g>
			<g>
				<g>
					<g>
						<rect x="67.5" y="114.4" class="st0" width="74.9" height="78.1"/>
					</g>
				</g>
			</g>
		</g>
		<g>
			<g>
				<g>
					<g>
						<rect x="62.4" y="114.4" class="st1" width="74.9" height="78.1"/>
					</g>
				</g>
			</g>
			<g>
				<g>
					<g>
						<path class="st0" d="M137.3,192.5H62.4v-78.1h74.9V192.5z M62.5,192.4h74.8v-78H62.5V192.4z"/>
					</g>
				</g>
			</g>
		</g>
		<g>
			<g>
				<g>
					<g>
						<rect x="72.5" y="124.9" class="st1" width="54.8" height="57.1"/>
					</g>
				</g>
			</g>
		</g>
		<g>
			<g>
				<g>
					<g>
						<g>
							<path class="st0" d="M72.5,182.3c0,0.1-0.5,0.6-1.4,1.6c-0.9,0.9-2.1,2.2-3.5,3.5c-1.4,1.4-2.6,2.6-3.6,3.4
								c-0.9,0.9-1.5,1.4-1.6,1.3c0,0,0.5-0.6,1.3-1.6c0.9-0.9,2.1-2.2,3.5-3.5c1.4-1.4,2.6-2.6,3.6-3.4
								C71.9,182.8,72.5,182.3,72.5,182.3z"/>
						</g>
					</g>
				</g>
			</g>
		</g>
		<g>
			<g>
				<g>
					<g>
						<g>
							<path class="st0" d="M127.3,182.2c0.1,0,0.6,0.5,1.6,1.4c0.9,0.9,2.2,2.1,3.5,3.5c1.4,1.4,2.6,2.6,3.4,3.6
								c0.9,0.9,1.4,1.5,1.3,1.6c0,0-0.6-0.5-1.6-1.3c-0.9-0.9-2.2-2.1-3.5-3.5c-1.4-1.4-2.6-2.6-3.4-3.6
								C127.7,182.8,127.2,182.2,127.3,182.2z"/>
						</g>
					</g>
				</g>
			</g>
		</g>
		<g>
			<g>
				<g>
					<g>
						<g>
							<path class="st0" d="M127.1,125c0-0.1,0.5-0.6,1.4-1.6c0.9-0.9,2.1-2.2,3.5-3.5c1.4-1.4,2.6-2.6,3.6-3.4
								c0.9-0.9,1.5-1.4,1.6-1.3c0,0-0.5,0.6-1.3,1.6c-0.9,0.9-2.1,2.2-3.5,3.5c-1.4,1.4-2.7,2.6-3.6,3.4
								C127.8,124.6,127.2,125.1,127.1,125z"/>
						</g>
					</g>
				</g>
			</g>
		</g>
		<g>
			<g>
				<g>
					<g>
						<g>
							<path class="st0" d="M72.4,125.2c-0.1,0-0.6-0.5-1.6-1.4c-0.9-0.9-2.2-2.1-3.5-3.5c-1.4-1.4-2.6-2.6-3.4-3.6
								c-0.9-0.9-1.4-1.5-1.3-1.6c0,0,0.6,0.5,1.6,1.3c0.9,0.9,2.2,2.1,3.5,3.5c1.4,1.4,2.6,2.7,3.4,3.6
								C71.9,124.5,72.4,125.1,72.4,125.2z"/>
						</g>
					</g>
				</g>
			</g>
		</g>
		<g>
			<g>
				<g>
					<g>
						<g>
							<path class="st0" d="M127.1,181.9c0,0,0-0.1,0-0.3c0-0.2,0-0.5,0-0.8c0-0.7,0-1.7,0-3.1c0-2.7,0-6.6-0.1-11.6
								c0-10-0.1-24.2-0.1-41.3l0.2,0.2c-15.9,0-34.7,0-54.6,0h0l0.2-0.2c0,20.9,0,40.5,0,57.1l-0.2-0.2c16.4,0,30,0.1,39.5,0.1
								c4.8,0,8.5,0,11.1,0.1c1.3,0,2.3,0,2.9,0c0.3,0,0.6,0,0.8,0C127,181.9,127.1,181.9,127.1,181.9c0,0-0.1,0-0.2,0
								c-0.2,0-0.4,0-0.7,0c-0.7,0-1.6,0-2.9,0c-2.6,0-6.3,0-11.1,0.1c-9.6,0-23.3,0.1-39.7,0.1l-0.2,0l0-0.2c0-16.5,0-36.1,0-57.1
								l0-0.2h0.2h0c19.9,0,38.7,0,54.6,0l0.2,0l0,0.2c0,17.1-0.1,31.4-0.1,41.4c0,5,0,8.9-0.1,11.6c0,1.3,0,2.3,0,3
								c0,0.3,0,0.6,0,0.8C127.1,181.9,127.1,182,127.1,181.9z"/>
						</g>
					</g>
				</g>
			</g>
		</g>
		<g>
			<g>
				<g>
					<g>
						<rect x="90.7" y="144.3" class="st2" width="18.3" height="18.3"/>
					</g>
				</g>
			</g>
		</g>
	</g>
	<g>
		<g>
			<g>
				<g>
					<g>
						<g>
							<g>
								<g>
									<g>
										<polygon class="st3" points="244.7,392.6 244.7,417.9 281.7,417.9 322.5,417.9 322.5,392.6 										"/>
									</g>
								</g>
							</g>
						</g>
					</g>
				</g>
				<g>
					<g>
						<g>
							<g>
								<g>
									<g>
										<polygon class="st0" points="241.5,385.5 241.5,392.6 325.2,392.6 325.2,385.5 281.7,385.5 										"/>
									</g>
								</g>
							</g>
						</g>
					</g>
				</g>
				<g>
					<g>
						<g>
							<g>
								<g>
									<g>
										<polygon class="st0" points="283.4,417.9 322.5,417.9 322.5,392.6 325.2,392.6 325.2,385.5 281.7,385.5 281.7,391.9 
																					"/>
									</g>
								</g>
							</g>
						</g>
					</g>
				</g>
				<g>
					<g>
						<g>
							<g>
								<g>
									<g>
										<rect x="255.6" y="396.6" class="st0" width="15.8" height="3.8"/>
									</g>
								</g>
							</g>
						</g>
					</g>
				</g>
				<g>
					<g>
						<g>
							<g>
								<g>
									<g>
										<rect x="253.6" y="405.2" class="st4" width="20.2" height="8"/>
									</g>
								</g>
							</g>
						</g>
					</g>
				</g>
			</g>
		</g>
		<g>
			<g>
				<g>
					<g>
						<g>
							<g>
								<g>
									<g>
										<polygon class="st3" points="210.4,428.6 210.4,467.2 266.8,467.2 329,467.2 329,428.6 										"/>
									</g>
								</g>
							</g>
						</g>
					</g>
				</g>
				<g>
					<g>
						<g>
							<g>
								<g>
									<g>
										<polygon class="st0" points="205.4,417.9 205.4,428.6 333.1,428.6 333.1,417.9 266.8,417.9 										"/>
									</g>
								</g>
							</g>
						</g>
					</g>
				</g>
				<g>
					<g>
						<g>
							<g>
								<g>
									<g>
										<polygon class="st0" points="269.3,467.2 329,467.2 329,428.6 333.1,428.6 333.1,417.9 266.8,417.9 266.8,427.6 
																					"/>
									</g>
								</g>
							</g>
						</g>
					</g>
				</g>
				<g>
					<g>
						<g>
							<g>
								<g>
									<g>
										<rect x="227" y="434.9" class="st0" width="24.1" height="5.8"/>
									</g>
								</g>
							</g>
						</g>
					</g>
				</g>
				<g>
					<g>
						<g>
							<g>
								<g>
									<g>
										<rect x="223.9" y="447.9" class="st4" width="30.9" height="12.3"/>
									</g>
								</g>
							</g>
						</g>
					</g>
				</g>
			</g>
		</g>
	</g>
	<g>
		<g>
			<g>
				<g>
					<g>
						<g>
							<g>
								<g>
									<g>
										<rect x="486.4" y="337.3" class="st3" width="173" height="79.8"/>
									</g>
								</g>
							</g>
						</g>
					</g>
				</g>
				<g>
					<g>
						<g>
							<g>
								<g>
									<g>
										<path class="st0" d="M655.3,413.3H490.3v-71.8h164.9V413.3z M491.4,412.3h162.8v-69.7H491.4V412.3z"/>
									</g>
								</g>
							</g>
						</g>
					</g>
				</g>
				<g>
					<g>
						<g>
							<g>
								<g>
									<g>
										<rect x="659.4" y="337.3" class="st0" width="42.3" height="79.8"/>
									</g>
								</g>
							</g>
						</g>
					</g>
				</g>
				<g>
					<g>
						<g>
							<g>
								<g>
									<g>
										<g>
											<path class="st0" d="M490.9,363.7c18.5,0,37.1,0,55.6,0c29.3,0,58.6,0,87.8,0c6.8,0,13.6,0,20.4,0c0.3,0,0.3-0.4,0-0.4
												c-18.5,0-37.1,0-55.6,0c-29.3,0-58.6,0-87.8,0c-6.8,0-13.6,0-20.4,0C490.6,363.3,490.6,363.7,490.9,363.7L490.9,363.7z"
												/>
										</g>
									</g>
								</g>
							</g>
						</g>
					</g>
				</g>
				<g>
					<g>
						<g>
							<g>
								<g>
									<g>
										<g>
											<path class="st0" d="M573.3,363.5c0.5-7.1,0.4-14.6,0.1-21.7c0-0.3-0.4-0.3-0.4,0c-0.4,7.1-0.4,14.6,0.1,21.7
												C573,363.7,573.3,363.7,573.3,363.5L573.3,363.5z"/>
										</g>
									</g>
								</g>
							</g>
						</g>
					</g>
				</g>
				<g>
					<g>
						<g>
							<g>
								<g>
									<g>
										<path class="st0" d="M617.4,352.7c0,1.2-1,2.2-2.2,2.2c-1.2,0-2.2-1-2.2-2.2c0-1.2,1-2.2,2.2-2.2
											C616.4,350.5,617.4,351.5,617.4,352.7z"/>
									</g>
								</g>
							</g>
						</g>
					</g>
				</g>
				<g>
					<g>
						<g>
							<g>
								<g>
									<g>
										<path class="st0" d="M531.5,352.7c0,1.2-1,2.2-2.2,2.2c-1.2,0-2.2-1-2.2-2.2c0-1.2,1-2.2,2.2-2.2
											C530.5,350.5,531.5,351.5,531.5,352.7z"/>
									</g>
								</g>
							</g>
						</g>
					</g>
				</g>
				<g>
					<g>
						<g>
							<g>
								<g>
									<g>
										<path class="st0" d="M575,377.4c0,1.2-1,2.2-2.2,2.2c-1.2,0-2.2-1-2.2-2.2c0-1.2,1-2.2,2.2-2.2
											C574,375.2,575,376.2,575,377.4z"/>
									</g>
								</g>
							</g>
						</g>
					</g>
				</g>
				<g>
					<g>
						<g>
							<g>
								<g>
									<g>
										<polygon class="st0" points="507.1,417.1 498.2,467.2 503.2,467.2 519.6,417.1 										"/>
									</g>
								</g>
							</g>
						</g>
					</g>
				</g>
				<g>
					<g>
						<g>
							<g>
								<g>
									<g>
										<polygon class="st0" points="647.1,417.1 654.6,467.3 649.6,467.3 634.6,417.1 										"/>
									</g>
								</g>
							</g>
						</g>
					</g>
				</g>
				<g>
					<g>
						<g>
							<g>
								<g>
									<g>
										<polygon class="st0" points="680.6,417.1 689,467.3 684,467.3 668.1,417.1 										"/>
									</g>
								</g>
							</g>
						</g>
					</g>
				</g>
				<g>
					<g>
						<g>
							<g>
								<g>
									<g>
										<path class="st0" d="M574.9,400c0,1.2-1,2.2-2.2,2.2c-1.2,0-2.2-1-2.2-2.2c0-1.2,1-2.2,2.2-2.2
											C573.9,397.8,574.9,398.8,574.9,400z"/>
									</g>
								</g>
							</g>
						</g>
					</g>
				</g>
				<g>
					<g>
						<g>
							<g>
								<g>
									<g>
										<g>
											<path class="st0" d="M490.9,388.5c18.5,0,37.1,0,55.6,0c29.3,0,58.6,0,87.8,0c6.8,0,13.6,0,20.4,0c0.3,0,0.3-0.4,0-0.4
												c-18.5,0-37.1,0-55.6,0c-29.3,0-58.6,0-87.8,0c-6.8,0-13.6,0-20.4,0C490.6,388,490.6,388.5,490.9,388.5L490.9,388.5z"/>
										</g>
									</g>
								</g>
							</g>
						</g>
					</g>
				</g>
			</g>
		</g>
		<g>
			<g>
				<g>
					<g>
						<g>
							<g>
								<g>
									<g>
										
											<rect x="640" y="278.9" transform="matrix(5.278111e-03 1 -1 5.278111e-03 946.9401 -341.8329)" class="st0" width="10.6" height="52.3"/>
									</g>
								</g>
							</g>
						</g>
					</g>
				</g>
			</g>
			<g>
				<g>
					<g>
						<g>
							<g>
								<g>
									<g>
										<g>
											
												<rect x="640.3" y="299.8" transform="matrix(5.288693e-03 1 -1 5.288693e-03 974.111 -321.3114)" class="st3" width="16.5" height="58.3"/>
										</g>
									</g>
								</g>
							</g>
						</g>
					</g>
				</g>
				<g>
					<g>
						<g>
							<g>
								<g>
									<g>
										<g>
											<path class="st0" d="M666.5,337c-0.2,0-0.3-3.7-0.3-8.3c0-4.6,0.1-8.3,0.3-8.3c0.2,0,0.3,3.7,0.3,8.3
												C666.8,333.3,666.7,337,666.5,337z"/>
										</g>
									</g>
								</g>
							</g>
						</g>
					</g>
				</g>
				<g>
					<g>
						<g>
							<g>
								<g>
									<g>
										<g>
											<path class="st0" d="M669,337c-0.2,0-0.3-3.7-0.3-8.3c0-4.6,0.1-8.3,0.3-8.3c0.2,0,0.3,3.7,0.3,8.3
												C669.3,333.3,669.1,337,669,337z"/>
										</g>
									</g>
								</g>
							</g>
						</g>
					</g>
				</g>
				<g>
					<g>
						<g>
							<g>
								<g>
									<g>
										<g>
											<path class="st0" d="M628.2,337c-0.2,0-0.3-3.7-0.3-8.3c0-4.6,0.1-8.3,0.3-8.3c0.2,0,0.3,3.7,0.3,8.3
												C628.5,333.3,628.4,337,628.2,337z"/>
										</g>
									</g>
								</g>
							</g>
						</g>
					</g>
				</g>
				<g>
					<g>
						<g>
							<g>
								<g>
									<g>
										<g>
											<path class="st0" d="M630.7,337c-0.2,0-0.3-3.7-0.3-8.3c0-4.6,0.1-8.3,0.3-8.3c0.2,0,0.3,3.7,0.3,8.3
												C631,333.3,630.8,337,630.7,337z"/>
										</g>
									</g>
								</g>
							</g>
						</g>
					</g>
				</g>
				<g>
					<g>
						<g>
							<g>
								<g>
									<g>
										<g>
											<path class="st0" d="M636,329c0-0.2,5.9-0.3,13.1-0.3c7.3,0,13.1,0.1,13.1,0.3c0,0.2-5.9,0.3-13.1,0.3
												C641.9,329.3,636,329.1,636,329z"/>
										</g>
									</g>
								</g>
							</g>
						</g>
					</g>
				</g>
			</g>
			<g>
				<g>
					<g>
						<g>
							<g>
								<g>
									<g>
										<g>
											
												<rect x="658.3" y="279.4" transform="matrix(5.279417e-03 1 -1 5.279417e-03 975.4695 -349.9794)" class="st2" width="10.6" height="71.9"/>
										</g>
									</g>
								</g>
							</g>
						</g>
					</g>
				</g>
				<g>
					<g>
						<g>
							<g>
								<g>
									<g>
										<path class="st0" d="M689.3,319.1c-1.9,0-3.4-1.5-3.4-3.4c0-1.9,1.5-3.4,3.4-3.4c1.9,0,3.4,1.5,3.4,3.4
											C692.7,317.6,691.2,319.1,689.3,319.1z"/>
									</g>
								</g>
							</g>
						</g>
					</g>
				</g>
				<g>
					<g>
						<g>
							<g>
								<g>
									<g>
										
											<rect x="654.9" y="291.6" transform="matrix(-1.836970e-16 1 -1 -1.836970e-16 971.6169 -340.2239)" class="st0" width="2.1" height="48.2"/>
									</g>
								</g>
							</g>
						</g>
					</g>
				</g>
			</g>
		</g>
	</g>
	<g >
		<g >
			<path class="st2" d="M689.3,120.7L689.3,120.7c-4.7,0-8.5-3.8-8.5-8.5l0,0c0-4.7,3.8-8.5,8.5-8.5l0,0c4.7,0,8.5,3.8,8.5,8.5l0,0
				C697.8,116.9,694,120.7,689.3,120.7z"/>
		</g>
		<g >
			<path class="st4" d="M684.8,115.1c0.8,0.5,1.8,0.8,2.8,0.8c3.4,0,5.4-2.9,5.3-5.5c0.4-0.3,0.7-0.6,0.9-1
				c-0.3,0.1-0.7,0.2-1.1,0.3c0.4-0.2,0.7-0.6,0.8-1c-0.4,0.2-0.8,0.4-1.2,0.5c-0.3-0.4-0.8-0.6-1.4-0.6c-1.2,0-2.1,1.1-1.8,2.3
				c-1.5-0.1-2.9-0.8-3.8-1.9c-0.5,0.8-0.3,1.9,0.6,2.5c-0.3,0-0.6-0.1-0.8-0.2c0,0.9,0.6,1.7,1.5,1.8c-0.3,0.1-0.5,0.1-0.8,0
				c0.2,0.7,0.9,1.3,1.7,1.3C686.8,114.9,685.8,115.2,684.8,115.1z"/>
		</g>
	</g>
	<g >
		<g >
			<path class="st0" d="M662.5,108.7L662.5,108.7c-6.7,0-12.1-5.4-12.1-12.1l0,0c0-6.7,5.4-12.1,12.1-12.1l0,0
				c6.7,0,12.1,5.4,12.1,12.1l0,0C674.6,103.3,669.2,108.7,662.5,108.7z"/>
		</g>
		<g >
			<path class="st4" d="M660.7,103.9h2.9v-7.4h2.1l0.2-2.5h-2.3c0,0,0-0.9,0-1.4c0-0.6,0.1-0.8,0.7-0.8c0.5,0,1.6,0,1.6,0v-2.6
				c0,0-1.7,0-2,0c-2.2,0-3.2,1-3.2,2.8c0,1.6,0,2,0,2h-1.5v2.5h1.5V103.9z"/>
		</g>
	</g>
	<g >
		<g >
			<path class="st3" d="M689.3,83.1L689.3,83.1c-8.5,0-15.4-6.9-15.4-15.4l0,0c0-8.5,6.9-15.4,15.4-15.4h0c8.5,0,15.4,6.9,15.4,15.4
				l0,0C704.8,76.2,697.9,83.1,689.3,83.1z"/>
		</g>
		<g >
			<path class="st4" d="M684.4,69.1c0.2,0.1,0.5,0,0.5-0.3c0-0.2,0.2-0.7,0.2-0.8c0.1-0.3,0-0.4-0.2-0.6c-0.4-0.5-0.7-1.1-0.7-2.1
				c0-2.7,2-5,5.2-5c2.8,0,4.4,1.7,4.4,4c0,3-1.3,5.6-3.3,5.6c-1.1,0-1.9-0.9-1.7-2c0.3-1.3,0.9-2.8,0.9-3.7c0-0.9-0.5-1.6-1.4-1.6
				c-1.1,0-2,1.2-2,2.7c0,1,0.3,1.7,0.3,1.7s-1.2,4.9-1.4,5.7c-0.4,1.7-0.1,3.8,0,4c0,0.1,0.2,0.2,0.2,0.1c0.1-0.1,1.4-1.8,1.9-3.4
				c0.1-0.5,0.7-2.9,0.7-2.9c0.4,0.7,1.4,1.3,2.6,1.3c3.4,0,5.7-3.1,5.7-7.2c0-3.1-2.6-6-6.7-6c-5,0-7.5,3.6-7.5,6.6
				C682.3,66.9,682.9,68.5,684.4,69.1z"/>
		</g>
	</g>
</g>
<g >
	<g>
		<g>
			<path class="st5" d="M695.7,467.2c0,0.1-143.6,0.3-320.6,0.3c-177.1,0-320.7-0.1-320.7-0.3S197.9,467,375,467
				C552.1,467,695.7,467.1,695.7,467.2z"/>
		</g>
	</g>
</g>
<g >
</g>
<g >
	<path class="st6" d="M536.2,93.4H115.9V71.7c0-2.3,1.9-4.2,4.2-4.2h411.8c2.3,0,4.2,1.9,4.2,4.2V93.4z"/>
	<rect x="134.2" y="98.3" class="st7" width="424.8" height="298.9"/>
	<path class="st7" d="M565.6,80.4c0,3.6-2.9,6.5-6.5,6.5c-3.6,0-6.5-2.9-6.5-6.5c0-3.6,2.9-6.5,6.5-6.5
		C562.7,73.9,565.6,76.8,565.6,80.4z"/>
	<path class="st7" d="M542.7,80.4c0,3.6-2.9,6.5-6.5,6.5c-3.6,0-6.5-2.9-6.5-6.5c0-3.6,2.9-6.5,6.5-6.5
		C539.8,73.9,542.7,76.8,542.7,80.4z"/>
	<path class="st7" d="M519.8,80.4c0,3.6-2.9,6.5-6.5,6.5c-3.6,0-6.5-2.9-6.5-6.5c0-3.6,2.9-6.5,6.5-6.5
		C516.9,73.9,519.8,76.8,519.8,80.4z"/>
	<g>
		<line class="st8" x1="546.2" y1="111.1" x2="529.4" y2="111.1"/>
		<line class="st8" x1="546.2" y1="117.9" x2="529.4" y2="117.9"/>
		<line class="st8" x1="546.2" y1="124.7" x2="529.4" y2="124.7"/>
	</g>
	<g>
		<line class="st8" x1="163.7" y1="287.5" x2="291" y2="287.5"/>
		<line class="st8" x1="163.7" y1="297.5" x2="291" y2="297.5"/>
		<line class="st8" x1="163.7" y1="307.7" x2="264" y2="307.7"/>
	</g>
	<g>
		<g>
			<g>
				<line class="st9" x1="433.6" y1="101.6" x2="433.6" y2="102.1"/>
				<line class="st10" x1="433.6" y1="105.1" x2="433.6" y2="390.3"/>
				<line class="st9" x1="433.6" y1="391.8" x2="433.6" y2="392.3"/>
			</g>
		</g>
		<g>
			<g>
				<line class="st9" x1="139.4" y1="330.2" x2="139.9" y2="330.2"/>
				<line class="st11" x1="142.9" y1="330.2" x2="550.6" y2="330.2"/>
				<line class="st9" x1="552.1" y1="330.2" x2="552.6" y2="330.2"/>
			</g>
		</g>
		<rect x="430.8" y="327.4" class="st7" width="5.6" height="5.6"/>
	</g>
	<g>
		<rect x="186.9" y="377.4" class="st12" width="86.8" height="54.4"/>
		<rect x="186.9" y="377.4" class="st6" width="86.8" height="8.3"/>
		<g>
			<line class="st13" x1="195.8" y1="392.6" x2="218" y2="392.6"/>
			<line class="st13" x1="206.9" y1="398.8" x2="245.3" y2="398.8"/>
			<line class="st13" x1="202" y1="404.6" x2="213.3" y2="404.6"/>
			<line class="st13" x1="206.9" y1="411.4" x2="232.7" y2="411.4"/>
			<line class="st13" x1="195.8" y1="417.6" x2="218" y2="417.6"/>
		</g>
	</g>
	<g>
		<line class="st14" x1="411.4" y1="276.6" x2="336.9" y2="276.6"/>
		<path class="st14" d="M412.8,311c0,0,0-34.6-38.7-34.6S335.4,311,335.4,311"/>
		<circle class="st6" cx="412.8" cy="311" r="3.3"/>
		<path class="st6" d="M332.2,311c0-1.8,1.5-3.3,3.3-3.3c1.8,0,3.3,1.5,3.3,3.3c0,1.8-1.5,3.3-3.3,3.3
			C333.6,314.3,332.2,312.8,332.2,311z"/>
		<g>
			
				<rect x="409.9" y="273.5" transform="matrix(-1 -1.224647e-16 1.224647e-16 -1 825.6077 552.795)" class="st6" width="5.7" height="5.7"/>
			
				<rect x="371.3" y="273.5" transform="matrix(-1 -1.224647e-16 1.224647e-16 -1 748.2502 552.795)" class="st6" width="5.7" height="5.7"/>
			
				<rect x="332.6" y="273.5" transform="matrix(-1 -1.224647e-16 1.224647e-16 -1 670.8928 552.795)" class="st6" width="5.7" height="5.7"/>
		</g>
	</g>
	<path class="st6" d="M210,172.5V161l-8.6-0.7c-0.5-1.8-1.2-3.5-2.1-5.1l5.5-6.6l-8.1-8.1l-6.6,5.5c-1.6-0.9-3.3-1.6-5.1-2.1
		l-0.7-8.6h-11.4l-0.7,8.6c-1.8,0.5-3.5,1.2-5.1,2.1l-6.6-5.5l-8.1,8.1l5.5,6.6c-0.9,1.6-1.6,3.3-2.1,5.1l-8.6,0.7v11.4l8.6,0.7
		c0.5,1.8,1.2,3.5,2.1,5.1l-5.5,6.6l8.1,8.1l6.6-5.5c1.6,0.9,3.3,1.6,5.1,2.1l0.7,8.6h11.4l0.7-8.6c1.8-0.5,3.5-1.2,5.1-2.1l6.6,5.5
		l8.1-8.1l-5.5-6.6c0.9-1.6,1.6-3.3,2.1-5.1L210,172.5z M178.5,180c-7.3,0-13.3-5.9-13.3-13.3s5.9-13.3,13.3-13.3
		s13.3,5.9,13.3,13.3S185.9,180,178.5,180z"/>
	<path class="st6" d="M248.8,198.1v-7.8l-5.9-0.5c-0.3-1.2-0.8-2.4-1.4-3.5l3.8-4.5l-5.5-5.5l-4.5,3.8c-1.1-0.6-2.3-1.1-3.5-1.4
		l-0.5-5.9h-7.8l-0.5,5.9c-1.2,0.3-2.4,0.8-3.5,1.4l-4.5-3.8l-5.5,5.5l3.8,4.5c-0.6,1.1-1.1,2.3-1.4,3.5l-5.9,0.5v7.8l5.9,0.5
		c0.3,1.2,0.8,2.4,1.4,3.5l-3.8,4.5l5.5,5.5l4.5-3.8c1.1,0.6,2.3,1.1,3.5,1.5l0.5,5.9h7.8l0.5-5.9c1.2-0.3,2.4-0.8,3.5-1.5l4.5,3.8
		l5.5-5.5l-3.8-4.5c0.6-1.1,1.1-2.3,1.4-3.5L248.8,198.1z M227.3,203.3c-5,0-9.1-4.1-9.1-9.1c0-5,4.1-9.1,9.1-9.1s9.1,4.1,9.1,9.1
		C236.4,199.2,232.3,203.3,227.3,203.3z"/>
	<g>
		<line class="st8" x1="449.6" y1="349.2" x2="512.2" y2="349.2"/>
		<line class="st8" x1="449.6" y1="359.2" x2="512.2" y2="359.2"/>
		<line class="st8" x1="449.6" y1="369.4" x2="485.3" y2="369.4"/>
	</g>
	<path class="st6" d="M367.1,373.6h-33c-4.5,0-8.1-3.6-8.1-8.1l0,0c0-4.5,3.6-8.1,8.1-8.1h33c4.5,0,8.1,3.6,8.1,8.1l0,0
		C375.2,370,371.6,373.6,367.1,373.6z"/>
	<path class="st6" d="M428.5,373.6h-33c-4.5,0-8.1-3.6-8.1-8.1l0,0c0-4.5,3.6-8.1,8.1-8.1h33c4.5,0,8.1,3.6,8.1,8.1l0,0
		C436.6,370,433,373.6,428.5,373.6z"/>
	<g>
		<rect x="454.2" y="200.1" class="st7" width="69.9" height="69.9"/>
		<line class="st7" x1="454.2" y1="200.1" x2="524.1" y2="270"/>
		<line class="st7" x1="524.1" y1="200.1" x2="454.2" y2="270"/>
	</g>
	<g>
		<rect x="513.3" y="158.6" class="st12" width="86.8" height="54.4"/>
		<rect x="513.3" y="158.6" class="st6" width="86.8" height="8.3"/>
		<g>
			<line class="st13" x1="522.1" y1="173.8" x2="544.3" y2="173.8"/>
			<line class="st13" x1="533.2" y1="180" x2="571.6" y2="180"/>
			<line class="st13" x1="528.3" y1="185.8" x2="539.6" y2="185.8"/>
			<line class="st13" x1="533.2" y1="192.6" x2="559.1" y2="192.6"/>
			<line class="st13" x1="522.1" y1="198.8" x2="544.3" y2="198.8"/>
		</g>
	</g>
	<g>
		<polygon class="st7" points="481.6,120.7 481.6,137.1 474.4,144.3 458.1,144.3 458.1,120.7 		"/>
		<polygon class="st7" points="481.6,137.1 474.4,144.3 474.4,137.1 		"/>
	</g>
	<g>
		<polygon class="st7" points="231.6,246.9 231.6,263.3 224.4,270.5 208,270.5 208,246.9 		"/>
		<polygon class="st7" points="231.6,263.3 224.4,270.5 224.4,263.3 		"/>
	</g>
	<g>
		<polygon class="st7" points="142.7,347.5 142.7,363.8 135.5,371 119.2,371 119.2,347.5 		"/>
		<polygon class="st7" points="142.7,363.8 135.5,371 135.5,363.8 		"/>
	</g>
</g>
<g >
	<g>
		<g>
			<g>
				<g>
					<path class="st15" d="M625.2,149.8c0,0,13.9,4.4,19.6,17.1c5.6,12.5,14.3,34.4,14.3,34.4s3.3-0.6,2.5,2.7l16.9-13.9l9,8.2
						l-3.8,4.6c0,0,1,9.5-6.7,15.2c-7.7,5.7-28.1,19.6-34.4,10.6c-6.3-8.9-8.7-38.4-8.7-38.4L625.2,149.8z"/>
				</g>
				<g>
					<g>
						<path class="st16" d="M683.7,202.8c-0.1,0.1-2.3-1.9-4.9-4.4c-2.6-2.6-4.6-4.7-4.5-4.8c0.1-0.1,2.3,1.9,4.9,4.4
							C681.7,200.6,683.8,202.7,683.7,202.8z"/>
					</g>
				</g>
				<g>
					<g>
						<path class="st16" d="M685.3,196.5c0.1,0.1-0.6,1.2-1.8,2.3c-1.1,1.1-2.2,1.8-2.3,1.7c-0.1-0.1,0.8-1,2-2.1
							C684.3,197.3,685.2,196.4,685.3,196.5z"/>
					</g>
				</g>
				<g>
					<g>
						<path class="st16" d="M682.8,194.4c0.1,0.1-0.8,0.9-2,1.8c-1.2,0.9-2.3,1.5-2.3,1.4c-0.1-0.1,0.8-0.9,2-1.8
							C681.7,194.9,682.7,194.3,682.8,194.4z"/>
					</g>
				</g>
				<g>
					<g>
						<path class="st16" d="M679.8,191.4c0.1,0.1-0.8,1-2,2c-1.2,1-2.3,1.7-2.3,1.6c-0.1-0.1,0.8-1,2-2
							C678.6,192,679.7,191.3,679.8,191.4z"/>
					</g>
				</g>
				<g>
					<g>
						<path class="st16" d="M653.4,211.9c-0.1-0.1,1.1-2.4,3.4-4.6c2.3-2.2,4.6-3.4,4.7-3.3c0.1,0.1-2.1,1.5-4.3,3.6
							C655,209.9,653.6,212,653.4,211.9z"/>
					</g>
				</g>
				<g>
					<g>
						<path class="st16" d="M652.3,207.9c-0.1,0,0.7-2.1,2.5-4.1c1.8-2,3.9-2.8,3.9-2.7c0.1,0.1-1.8,1.2-3.5,3.1
							C653.4,206,652.4,207.9,652.3,207.9z"/>
					</g>
				</g>
			</g>
			<g>
				<path class="st15" d="M570.6,153.8c0,0,2.2-8.1,6.6-8.7c0,0,2.1-7,11-8.3c5.1-0.7,24.2-2.6,27.3,1.6c3.1,4.2,3.5,6.6,3.5,6.6
					s9.3,1.3,8,12.6l-51.3,2.6L570.6,153.8z"/>
			</g>
			<g>
				<g>
					<g>
						<g>
							<g>
								<path class="st15" d="M636,437.2l-0.3,19.1c0,0,19.2,5.2,19.5,8.7l-37,2.3l-0.7-29.8L636,437.2z"/>
							</g>
						</g>
					</g>
					<g>
						<g>
							<g>
								<g>
									<path class="st2" d="M624.2,454.9c-0.7,0.2-1.2,1-1,1.7c0.2,0.7,1,1.2,1.7,1c0.7-0.2,1.3-1.2,1.1-1.9
										c-0.3-0.7-1.3-1.2-1.9-0.9"/>
								</g>
							</g>
						</g>
					</g>
					<g>
						<g>
							<g>
								<path class="st16" d="M618.2,467.3l-0.1-3l35.1-1.5c0,0,2.1,1.1,2.1,2.3L618.2,467.3z"/>
							</g>
						</g>
					</g>
					<g>
						<g>
							<g>
								<g>
									<path class="st16" d="M636.3,456.1c0,0.2-0.9,0.3-1.8,0.9c-0.9,0.6-1.3,1.4-1.5,1.3c-0.2,0,0.1-1.1,1.2-1.8
										C635.2,455.7,636.3,455.9,636.3,456.1z"/>
								</g>
							</g>
						</g>
					</g>
					<g>
						<g>
							<g>
								<g>
									<path class="st16" d="M640.2,457.6c0,0.2-0.7,0.5-1.3,1.3c-0.6,0.8-0.8,1.6-0.9,1.6c-0.2,0-0.3-1,0.5-2
										C639.1,457.6,640.2,457.5,640.2,457.6z"/>
								</g>
							</g>
						</g>
					</g>
					<g>
						<g>
							<g>
								<g>
									<path class="st16" d="M642.5,462.3c-0.2,0-0.4-0.9,0-1.9c0.4-1,1.3-1.4,1.4-1.3c0.1,0.1-0.4,0.7-0.8,1.5
										C642.7,461.5,642.7,462.2,642.5,462.3z"/>
								</g>
							</g>
						</g>
					</g>
					<g>
						<g>
							<g>
								<g>
									<path class="st16" d="M635.9,451.7c-0.1,0.2-0.9-0.1-1.9,0c-1,0.1-1.8,0.4-1.9,0.3c-0.1-0.1,0.7-0.8,1.9-0.9
										C635.1,451,636,451.6,635.9,451.7z"/>
								</g>
							</g>
						</g>
					</g>
				</g>
				<g>
					<g>
						<g>
							<g>
								<path class="st16" d="M635.9,447.9c0,0.1-0.7,0.2-1.9,0c-0.6-0.1-1.2-0.3-2-0.6c-0.4-0.2-0.7-0.3-1.1-0.5
									c-0.2-0.1-0.4-0.2-0.6-0.4c-0.2-0.2-0.3-0.7-0.1-1c0.2-0.3,0.5-0.4,0.8-0.4c0.3,0,0.5,0,0.7,0.1c0.4,0.1,0.8,0.2,1.2,0.4
									c0.7,0.3,1.3,0.7,1.7,1.1c0.9,0.8,1.2,1.5,1.1,1.5c-0.1,0.1-0.5-0.5-1.4-1.1c-0.4-0.3-1-0.6-1.7-0.9
									c-0.3-0.1-0.7-0.2-1.1-0.3c-0.4-0.1-0.7-0.1-0.8,0.1c0,0.1,0,0.1,0,0.2c0.1,0.1,0.2,0.2,0.4,0.3c0.3,0.2,0.7,0.4,1,0.5
									c0.7,0.3,1.3,0.5,1.8,0.7C635.2,447.7,635.9,447.8,635.9,447.9z"/>
							</g>
						</g>
					</g>
				</g>
				<g>
					<g>
						<g>
							<g>
								<path class="st16" d="M635.7,448.1c-0.1,0-0.4-0.6-0.5-1.8c0-0.6,0-1.3,0.2-2c0.1-0.4,0.3-0.8,0.5-1.1
									c0.2-0.4,0.5-0.9,1.2-1c0.4,0,0.7,0.3,0.8,0.5c0.1,0.2,0.2,0.5,0.2,0.7c0.1,0.4,0.1,0.9,0,1.3c-0.1,0.8-0.4,1.5-0.8,1.9
									c-0.7,1-1.5,1.2-1.5,1.1c-0.1-0.1,0.6-0.5,1.1-1.4c0.3-0.5,0.5-1.1,0.6-1.8c0-0.3,0-0.7-0.1-1.1c-0.1-0.4-0.2-0.7-0.4-0.7
									c-0.2,0-0.5,0.3-0.6,0.6c-0.2,0.3-0.3,0.7-0.4,1c-0.2,0.7-0.3,1.3-0.3,1.9C635.6,447.4,635.8,448.1,635.7,448.1z"/>
							</g>
						</g>
					</g>
				</g>
			</g>
			<g>
				<g>
					<g>
						<g>
							<g>
								<path class="st15" d="M583.3,439l-3.1,18.9c0,0,18.2,7.9,18,11.5l-36.9-3.2l3.7-29.6L583.3,439z"/>
							</g>
						</g>
					</g>
					<g>
						<g>
							<g>
								<g>
									<path class="st2" d="M568.9,454.8c-0.7,0.1-1.3,0.8-1.3,1.6c0.1,0.7,0.8,1.4,1.6,1.3c0.7-0.1,1.5-1,1.3-1.7
										c-0.2-0.7-1.1-1.4-1.8-1.1"/>
								</g>
							</g>
						</g>
					</g>
					<g>
						<g>
							<g>
								<path class="st16" d="M561.2,466.2l0.4-3l34.9,3.7c0,0,1.9,1.4,1.7,2.5L561.2,466.2z"/>
							</g>
						</g>
					</g>
					<g>
						<g>
							<g>
								<g>
									<path class="st16" d="M580.7,457.8c0,0.2-0.9,0.1-1.9,0.6c-1,0.4-1.5,1.2-1.7,1.1c-0.2-0.1,0.2-1.1,1.4-1.6
										C579.7,457.3,580.8,457.6,580.7,457.8z"/>
								</g>
							</g>
						</g>
					</g>
					<g>
						<g>
							<g>
								<g>
									<path class="st16" d="M584.4,459.9c0,0.2-0.8,0.4-1.5,1.1c-0.7,0.7-1,1.5-1.2,1.4c-0.2,0-0.2-1.1,0.7-1.9
										C583.3,459.6,584.4,459.7,584.4,459.9z"/>
								</g>
							</g>
						</g>
					</g>
					<g>
						<g>
							<g>
								<g>
									<path class="st16" d="M586,464.8c-0.2,0-0.3-0.9,0.3-1.8c0.6-0.9,1.5-1.2,1.5-1c0.1,0.2-0.5,0.6-1,1.4
										C586.3,464,586.2,464.8,586,464.8z"/>
								</g>
							</g>
						</g>
					</g>
					<g>
						<g>
							<g>
								<g>
									<path class="st16" d="M581,453.4c-0.1,0.2-0.9-0.2-1.9-0.3c-1-0.1-1.9,0.2-1.9,0c-0.1-0.1,0.8-0.7,2-0.6
										C580.3,452.6,581.1,453.3,581,453.4z"/>
								</g>
							</g>
						</g>
					</g>
				</g>
				<g>
					<g>
						<g>
							<g>
								<path class="st16" d="M581.5,449.6c0,0.1-0.7,0.1-1.8-0.2c-0.6-0.2-1.2-0.4-1.9-0.8c-0.3-0.2-0.7-0.4-1-0.7
									c-0.2-0.1-0.3-0.3-0.5-0.5c-0.2-0.2-0.2-0.7,0-1c0.2-0.3,0.6-0.3,0.8-0.3c0.3,0,0.5,0.1,0.7,0.2c0.4,0.2,0.8,0.3,1.1,0.5
									c0.7,0.4,1.2,0.9,1.6,1.3c0.8,0.9,1,1.6,0.9,1.6c-0.1,0-0.4-0.6-1.2-1.3c-0.4-0.4-0.9-0.8-1.5-1.1c-0.3-0.2-0.7-0.3-1-0.5
									c-0.4-0.2-0.7-0.2-0.8,0c0,0.1-0.1,0.1,0,0.2c0.1,0.1,0.2,0.2,0.4,0.4c0.3,0.3,0.6,0.5,0.9,0.7c0.6,0.4,1.2,0.7,1.7,0.9
									C580.9,449.3,581.6,449.5,581.5,449.6z"/>
							</g>
						</g>
					</g>
				</g>
				<g>
					<g>
						<g>
							<g>
								<path class="st16" d="M581.3,449.8c-0.1,0-0.3-0.7-0.3-1.8c0-0.6,0.2-1.3,0.5-2c0.2-0.4,0.4-0.7,0.6-1.1
									c0.3-0.3,0.6-0.8,1.3-0.8c0.4,0,0.6,0.4,0.7,0.6c0.1,0.3,0.1,0.5,0.1,0.7c0,0.4-0.1,0.9-0.2,1.2c-0.2,0.8-0.6,1.4-1,1.8
									c-0.8,0.9-1.6,1-1.6,0.9c0-0.1,0.6-0.4,1.3-1.2c0.3-0.4,0.6-1,0.8-1.7c0.1-0.3,0.1-0.7,0.1-1.1c0-0.4-0.1-0.7-0.3-0.7
									c-0.2,0-0.5,0.2-0.7,0.5c-0.2,0.3-0.4,0.6-0.6,0.9c-0.3,0.6-0.5,1.3-0.6,1.8C581.3,449.1,581.4,449.8,581.3,449.8z"/>
							</g>
						</g>
					</g>
				</g>
			</g>
			<g>
				<path class="st16" d="M572.2,250.2c-0.2,0-10.4,202-10.4,202h28l8.3-93.1l6.8-75.7l4.3,70l5.1,98.6l25.7-0.9l-2.3-202h-33.3
					L572.2,250.2z"/>
			</g>
			<g>
				<g>
					<g>
						<g>
							<g>
								<g>
									<g>
										<g>
											<g>
												<g>
													<g>
														<g>
															<g>
																<g>
																	<g>
																		<g>
																			<g>
																				<path class="st17" d="M585.8,106.5l3.8,44.4l10.4,6.2l11.6-5.6c0.1-2.6,0.2-15,0.2-15s9.3-1.4,9.4-10.7
																					c0.1-4.5-0.6-13.8-1.3-22.2c-0.7-9.3-8.8-16.3-18.1-15.7h0C592.2,88.5,585,96.9,585.8,106.5z"/>
																			</g>
																		</g>
																	</g>
																</g>
															</g>
														</g>
													</g>
												</g>
											</g>
										</g>
									</g>
								</g>
								<g>
									<g>
										<g>
											<g>
												<g>
													<g>
														<g>
															<g>
																<g>
																	<g>
																		<g>
																			<g>
																				<path class="st18" d="M611.8,136.4c0,0-5.8,0.5-12.1-3.4c0,0,2.9,6.7,12.1,5.8L611.8,136.4z"/>
																			</g>
																		</g>
																	</g>
																</g>
															</g>
														</g>
													</g>
												</g>
											</g>
										</g>
									</g>
								</g>
							</g>
						</g>
					</g>
					<g>
						<g>
							<g>
								<g>
									<g>
										<g>
											<g>
												<g>
													<g>
														<g>
															<g>
																<g>
																	<g>
																		<g>
																			<g>
																				<g>
																					<g>
																						<g>
																							<path class="st16" d="M617.3,110.7c0,0.7-0.5,1.3-1.3,1.3c-0.7,0-1.3-0.5-1.4-1.2c0-0.7,0.5-1.3,1.3-1.3
																								C616.7,109.5,617.3,110,617.3,110.7z"/>
																						</g>
																					</g>
																				</g>
																			</g>
																		</g>
																	</g>
																</g>
															</g>
														</g>
													</g>
												</g>
											</g>
											<g>
												<g>
													<g>
														<g>
															<g>
																<g>
																	<g>
																		<g>
																			<g>
																				<g>
																					<g>
																						<g>
																							<g>
																								<path class="st16" d="M618,108.3c-0.2,0.2-1.2-0.6-2.6-0.6c-1.4,0-2.5,0.7-2.6,0.5
																									c-0.1-0.1,0.1-0.4,0.5-0.7c0.4-0.3,1.2-0.6,2.1-0.6c0.9,0,1.6,0.3,2.1,0.7C617.9,107.9,618,108.3,618,108.3
																									z"/>
																							</g>
																						</g>
																					</g>
																				</g>
																			</g>
																		</g>
																	</g>
																</g>
															</g>
														</g>
													</g>
												</g>
											</g>
										</g>
										<g>
											<g>
												<g>
													<g>
														<g>
															<g>
																<g>
																	<g>
																		<g>
																			<g>
																				<g>
																					<g>
																						<g>
																							<path class="st16" d="M604,110.9c0,0.7-0.5,1.3-1.3,1.3c-0.7,0-1.3-0.5-1.4-1.2c0-0.7,0.5-1.3,1.3-1.3
																								C603.4,109.7,604,110.2,604,110.9z"/>
																						</g>
																					</g>
																				</g>
																			</g>
																		</g>
																	</g>
																</g>
															</g>
														</g>
													</g>
												</g>
											</g>
											<g>
												<g>
													<g>
														<g>
															<g>
																<g>
																	<g>
																		<g>
																			<g>
																				<g>
																					<g>
																						<g>
																							<g>
																								<path class="st16" d="M604,108.6c-0.2,0.2-1.2-0.6-2.6-0.6c-1.4,0-2.5,0.7-2.6,0.5
																									c-0.1-0.1,0.1-0.4,0.5-0.7c0.4-0.3,1.2-0.6,2.1-0.6c0.9,0,1.6,0.3,2.1,0.7
																									C603.9,108.2,604.1,108.5,604,108.6z"/>
																							</g>
																						</g>
																					</g>
																				</g>
																			</g>
																		</g>
																	</g>
																</g>
															</g>
														</g>
													</g>
												</g>
											</g>
										</g>
										<g>
											<g>
												<g>
													<g>
														<g>
															<g>
																<g>
																	<g>
																		<g>
																			<g>
																				<g>
																					<g>
																						<g>
																							<path class="st16" d="M609.1,119.1c0-0.1,0.9-0.2,2.3-0.4c0.4,0,0.7-0.1,0.8-0.4c0.1-0.3-0.1-0.7-0.2-1.1
																								c-0.3-0.9-0.7-1.8-1.1-2.8c-1.5-3.9-2.6-7.2-2.4-7.2c0.2-0.1,1.5,3.1,3,7c0.4,1,0.7,1.9,1,2.8
																								c0.1,0.4,0.4,0.9,0.2,1.4c-0.1,0.3-0.4,0.5-0.6,0.5c-0.2,0.1-0.4,0.1-0.6,0.1
																								C610,119.2,609.2,119.2,609.1,119.1z"/>
																						</g>
																					</g>
																				</g>
																			</g>
																		</g>
																	</g>
																</g>
															</g>
														</g>
													</g>
												</g>
											</g>
										</g>
										<g>
											<g>
												<g>
													<g>
														<g>
															<g>
																<g>
																	<g>
																		<g>
																			<g>
																				<g>
																					<g>
																						<g>
																							<path class="st16" d="M605,120.1c0.2,0,0.2,1.5,1.6,2.6c1.3,1.1,3,0.9,3,1.1c0,0.1-0.4,0.3-1.1,0.3
																								c-0.7,0-1.7-0.2-2.5-0.9c-0.8-0.7-1.2-1.6-1.2-2.2C604.7,120.5,604.9,120.1,605,120.1z"/>
																						</g>
																					</g>
																				</g>
																			</g>
																		</g>
																	</g>
																</g>
															</g>
														</g>
													</g>
												</g>
											</g>
										</g>
									</g>
								</g>
							</g>
							<g>
								<g>
									<g>
										<g>
											<g>
												<g>
													<g>
														<g>
															<g>
																<g>
																	<g>
																		<g>
																			<path class="st16" d="M604.4,103c-0.1,0.4-1.6,0.2-3.2,0.4c-1.7,0.2-3,0.7-3.2,0.3c-0.1-0.2,0.1-0.5,0.7-0.9
																				c0.5-0.4,1.4-0.7,2.4-0.8c1-0.1,1.9,0,2.5,0.3C604.1,102.5,604.4,102.8,604.4,103z"/>
																		</g>
																	</g>
																</g>
															</g>
														</g>
													</g>
												</g>
											</g>
										</g>
									</g>
								</g>
							</g>
							<g>
								<g>
									<g>
										<g>
											<g>
												<g>
													<g>
														<g>
															<g>
																<g>
																	<g>
																		<g>
																			<path class="st16" d="M617.4,104.2c-0.3,0.3-1.2,0-2.4,0c-1.2-0.1-2.2,0.2-2.4-0.1c-0.1-0.2,0.1-0.5,0.5-0.8
																				c0.4-0.3,1.1-0.6,2-0.5c0.8,0,1.5,0.3,1.9,0.6C617.4,103.7,617.6,104.1,617.4,104.2z"/>
																		</g>
																	</g>
																</g>
															</g>
														</g>
													</g>
												</g>
											</g>
										</g>
									</g>
								</g>
							</g>
						</g>
					</g>
				</g>
				<g>
					<g>
						<path class="st16" d="M616.7,94.9"/>
					</g>
				</g>
				<g>
					<g>
						<g>
							<path class="st16" d="M579.3,94.7c-0.1-1.7,1.2-3.6,2.9-3.7c-0.7-1.6-0.3-3.7,1.1-4.9c1.4-1.2,3.5-1.4,5-0.5
								c0.5-2,2.2-3.6,4.3-4.1c2-0.4,4.3,0.4,5.5,2.1c1.3-1.5,3.4-2.3,5.4-2c2,0.3,3.8,1.7,4.5,3.6c1.7-1.4,4.2-1.9,6.3-1.2
								c1.3,0.5,2.5,1.4,3.3,2.5c1-0.3,2.1-0.6,3.2-0.5c1.4,0.1,2.8,0.8,3.3,2.1c0.4,1.1,0,2.4-1,3c1.7-0.4,3.7,0.8,3.9,2.5
								c0.2,1.6-1,3.1-2.5,3.4c0.6,0.3,1,0.9,1,1.6c-0.1,1.1-1.1,1.9-2.2,2.4c-2.6,1.2-5.7,0.8-8.4-0.1c-2.7-0.9-5.3-2.4-8-3.3
								c-2.7-1-7.2-2.8-10-1.8c-0.4,0.1-0.7,0.3-1.1,0.6c-1.5,1.2-2.4,2.8-2.7,4.7c0,0.1,0,0.1,0,0.2c-0.4,2.6-0.3,5.3-0.7,8
								c-0.4,2.6-1.3,5.3-3.3,7.1c-0.8,0.7-2.2,1.3-2.9,0.4c-0.3-0.3-0.3-0.8-0.3-1.2c-0.4-4.6-1.4-8.8-1.9-13.3
								c-0.5-1.2-1.6-2.1-2.5-3C580.3,97.9,579.3,96.4,579.3,94.7z"/>
						</g>
					</g>
					<g>
						<g>
							<g>
								<path class="st5" d="M606.9,90c0,0,0.2-0.4,0.1-1.2c-0.1-0.8-0.4-2-1.5-3c-1.1-1-3-1.6-4.9-1c-0.9,0.3-1.9,1-2.3,2
									c-0.2,0.5-0.2,1.1-0.1,1.7c0.2,0.6,0.6,1.1,1.2,1.3c0.6,0.2,1.3,0.2,1.8-0.2c0.5-0.4,0.7-1.1,0.7-1.6
									c-0.1-0.6-0.4-1.1-0.8-1.5c-0.4-0.4-0.9-0.6-1.3-0.7c-1.9-0.6-3.8-0.1-4.9,0.8c-0.6,0.4-1,1-1.2,1.6
									c-0.2,0.6-0.2,1.1-0.1,1.5c0.2,0.8,0.7,1.1,0.7,1c0,0-0.3-0.3-0.4-1.1c-0.1-0.4,0-0.8,0.2-1.3c0.2-0.5,0.6-1,1.1-1.4
									c1.1-0.8,2.8-1.2,4.5-0.6c0.8,0.3,1.6,0.9,1.7,1.8c0,0.4-0.1,0.9-0.4,1.1c-0.3,0.2-0.8,0.3-1.2,0.1
									c-0.9-0.3-1.1-1.5-0.8-2.3c0.3-0.8,1.1-1.4,1.9-1.7c1.7-0.6,3.4-0.1,4.4,0.8c1,0.9,1.4,2,1.5,2.8
									C606.9,89.6,606.8,90,606.9,90z"/>
							</g>
						</g>
					</g>
					<g>
						<g>
							<g>
								<path class="st5" d="M595.6,84.1c0,0-0.3-0.1-0.8-0.2c-0.5,0-1.3-0.1-2.3,0.1c-1,0.2-2.2,0.6-3.1,1.6c-1,1-1.4,2.8-0.5,4.2
									c0.1,0.2,0.3,0.4,0.5,0.6l0.3-0.5c-0.8-0.3-1.6-0.1-2.2,0.3c-0.6,0.4-1,1-1.2,1.7c-0.3,1.3,0.2,2.5,0.7,3.2
									c0.6,0.8,1.2,1.2,1.6,1.5c0.4,0.3,0.7,0.4,0.7,0.4c0,0-0.2-0.2-0.6-0.5c-0.4-0.3-0.9-0.8-1.4-1.5c-0.5-0.7-0.8-1.8-0.5-2.8
									c0.1-0.5,0.5-1,1-1.3c0.5-0.3,1.1-0.4,1.7-0.2l1.5,0.6l-1.2-1.1c-0.1-0.1-0.3-0.3-0.4-0.5c-0.4-0.5-0.5-1.2-0.4-1.9
									c0.1-0.6,0.4-1.2,0.8-1.6c0.8-0.9,1.9-1.3,2.8-1.5C594.4,84.1,595.6,84.2,595.6,84.1z"/>
							</g>
						</g>
					</g>
					<g>
						<g>
							<g>
								<path class="st5" d="M582.2,93.9c-0.1,0-0.2,0.3-0.2,0.9c0,0.6,0.2,1.4,0.8,2.1c0.6,0.7,1.4,1,2,1c0.6,0.1,0.9-0.1,0.9-0.1
									c0-0.2-1.4-0.1-2.4-1.3C582.2,95.3,582.4,93.9,582.2,93.9z"/>
							</g>
						</g>
					</g>
					<g>
						<g>
							<g>
								<path class="st5" d="M621.7,89.1c0,0-0.2-0.3-0.9-0.7c-0.6-0.4-1.6-0.8-3-0.8c-1.3,0-2.9,0.4-4.2,1.7
									c-0.6,0.6-1.1,1.5-1.1,2.6c0.1,1,1,2.1,2.2,2c0.6-0.1,1.1-0.5,1.3-1c0.2-0.5,0.2-1.1,0.1-1.6c-0.3-1-1.2-1.7-2-1.9
									c-0.9-0.3-1.8-0.2-2.5,0c-0.7,0.3-1.3,0.7-1.8,1.1c-1,0.9-1.5,1.8-1.8,2.4c-0.3,0.6-0.5,1-0.4,1c0,0,0.3-0.3,0.6-0.9
									c0.4-0.6,1-1.4,1.9-2.2c0.9-0.8,2.4-1.5,3.9-1c0.7,0.2,1.4,0.8,1.6,1.6c0.2,0.7-0.1,1.8-0.9,1.8c-0.8,0.1-1.5-0.7-1.5-1.5
									c-0.1-0.8,0.4-1.6,0.9-2.1c1.1-1.2,2.6-1.6,3.8-1.7c1.2-0.1,2.2,0.3,2.8,0.5C621.4,88.9,621.7,89.1,621.7,89.1z"/>
							</g>
						</g>
					</g>
				</g>
				<g>
					<g>
						<g>
							<g>
								<g>
									<g>
										<g>
											<g>
												<g>
													<g>
														<g>
															<g>
																<g>
																	<path class="st17" d="M588.9,110.7c-0.2-0.1-6.4-1.9-6.2,4.4c0.2,6.3,6.5,4.8,6.5,4.6
																		C589.3,119.6,588.9,110.7,588.9,110.7z"/>
																</g>
															</g>
														</g>
													</g>
												</g>
											</g>
										</g>
									</g>
								</g>
							</g>
						</g>
					</g>
					<g>
						<g>
							<g>
								<g>
									<g>
										<g>
											<g>
												<g>
													<g>
														<g>
															<g>
																<g>
																	<g>
																		<path class="st18" d="M587.3,117.5c0,0-0.1,0.1-0.3,0.2c-0.2,0.1-0.5,0.2-0.8,0c-0.7-0.2-1.3-1.3-1.3-2.4
																			c0-0.6,0.1-1.1,0.3-1.6c0.2-0.5,0.5-0.8,0.8-0.9c0.3-0.1,0.6,0.1,0.7,0.3c0.1,0.2,0.1,0.3,0.1,0.3
																			c0,0,0.1-0.1,0.1-0.4c0-0.1-0.1-0.3-0.3-0.4c-0.2-0.1-0.4-0.2-0.6-0.1c-0.5,0-0.9,0.5-1.1,1
																			c-0.2,0.5-0.4,1.1-0.3,1.8c0.1,1.3,0.8,2.4,1.7,2.7c0.4,0.1,0.8,0,1-0.2C587.3,117.6,587.3,117.5,587.3,117.5z"/>
																	</g>
																</g>
															</g>
														</g>
													</g>
												</g>
											</g>
										</g>
									</g>
								</g>
							</g>
						</g>
					</g>
				</g>
			</g>
			<g>
				<path class="st15" d="M640.7,234l-2.8-29.9l3.2-24.6c0.7-12-5.4-23.4-15.8-29.6h0l-24.7,6.8l-24.2-6.8l-10.4,7l8.8,49.7
					l-3.8,32.8c-0.9,6,1.1,14.5,1.1,14.5l65.9,0.6l1.3-0.6C640.7,247.4,641.5,240.8,640.7,234z"/>
			</g>
			<g>
				<path class="st15" d="M584,144.1c0,0,4.6-0.8,7.5,1.5c3,2.4,12.4,9.6,12.4,9.6s8.4-15.5,15.3-13.1c6.8,2.4,8,16.7,8,16.7
					l-30.5,1.9l-18.8-0.4L584,144.1z"/>
			</g>
			<g>
				<g>
					<path class="st16" d="M631.5,246.5c0,0,0.4-0.5,1-1.6c0.6-1,1.4-2.6,1.9-4.8c0.5-2.1,0.7-4.9-0.1-7.8c-0.7-3-2.7-5.9-5-8.8
						l0.2,0.1c-1.5-0.1-3-0.6-4.4-1.6c-1.3-0.9-2.4-2.2-3.2-3.7l0.3,0.2c-2.8,0.2-5.7,0.5-8.7,0.8c-3.4,0.3-6.7,0.6-9.9,0.9l0.2-0.2
						c-0.3,1-0.8,1.9-1.4,2.7c-0.6,0.8-1.4,1.4-2.2,2c-1.6,1-3.4,1.7-5.1,2l0.2-0.3c1,3.3,1,6.4,0.6,9.2c-0.4,2.7-1.3,5-2.3,6.7
						c-1.1,1.7-2.3,2.7-3.2,3.3c-0.4,0.3-0.8,0.4-1.1,0.5c-0.3,0.1-0.4,0.2-0.4,0.1c0,0,0.5-0.2,1.4-0.8c0.9-0.5,2-1.6,3-3.3
						c1-1.7,1.8-3.9,2.2-6.6c0.4-2.7,0.3-5.8-0.7-9l-0.1-0.2l0.3,0c1.6-0.3,3.4-0.9,4.9-1.9c0.8-0.5,1.5-1.1,2-1.9
						c0.6-0.7,1-1.6,1.3-2.5l0.1-0.2l0.2,0c3.2-0.3,6.5-0.6,9.9-0.9c3-0.3,5.9-0.5,8.7-0.8l0.2,0l0.1,0.2c0.7,1.4,1.8,2.7,3,3.5
						c1.2,0.9,2.7,1.4,4.1,1.5l0.1,0l0.1,0.1c1.2,1.5,2.2,2.9,3.1,4.4c0.9,1.5,1.5,3,1.9,4.5c0.7,3,0.5,5.8,0,8
						c-0.5,2.2-1.4,3.8-2.1,4.8C631.9,246,631.5,246.5,631.5,246.5z"/>
				</g>
			</g>
			<g class="st19">
				<g>
					<path d="M594.6,226.1c-0.6,3.5-1.7,7.1-4.3,9.6c-1.4,1.3-3.2,2.1-4.6,3.3s-2.6,3.1-2.1,4.9c0.6,1.9,2.9,2.8,4.8,2.3
						c1.9-0.4,3.4-1.9,4.5-3.5C596.3,238,596.9,231.4,594.6,226.1"/>
				</g>
			</g>
			<g>
				<g>
					<path class="st16" d="M640.7,247.4c0,0-0.2,0.1-0.7,0.1c-0.5,0.1-1.1,0.2-1.9,0.3c-1.7,0.2-4.1,0.5-7.2,0.8
						c-6.1,0.6-14.5,1.1-23.8,1.2c-9.3,0-17.7-0.4-23.8-1c-3-0.3-5.5-0.5-7.2-0.7c-0.8-0.1-1.4-0.2-1.9-0.3
						c-0.4-0.1-0.7-0.1-0.7-0.1c0,0,0.2,0,0.7,0c0.5,0,1.1,0.1,2,0.2c1.7,0.2,4.2,0.4,7.2,0.6c6.1,0.4,14.5,0.9,23.8,0.8
						c9.3,0,17.7-0.5,23.8-1c3-0.2,5.5-0.5,7.2-0.6c0.8-0.1,1.5-0.1,2-0.2C640.4,247.4,640.6,247.4,640.7,247.4z"/>
				</g>
			</g>
			<g>
				<g>
					<path class="st16" d="M580.6,255.2c-0.1,0.1-1-1.2-1.4-3.1c-0.4-1.9-0.1-3.5,0.1-3.4c0.2,0,0.1,1.5,0.4,3.3
						C580.1,253.8,580.7,255.1,580.6,255.2z"/>
				</g>
			</g>
			<g>
				<g>
					<path class="st16" d="M585.8,254.2c-0.1,0-0.4-1.2-0.6-2.6c-0.2-1.5-0.2-2.7-0.1-2.7c0.1,0,0.4,1.2,0.6,2.6
						C585.9,253,586,254.2,585.8,254.2z"/>
				</g>
			</g>
			<g>
				<g>
					<path class="st16" d="M594.2,255.8c-0.1,0-0.5-1.4-0.6-3.2c-0.1-1.8,0.1-3.3,0.2-3.3c0.1,0,0.2,1.5,0.3,3.2
						C594.2,254.3,594.3,255.7,594.2,255.8z"/>
				</g>
			</g>
			<g>
				<g>
					<path class="st16" d="M600.9,255.1c-0.1,0-0.4-1.2-0.6-2.7c-0.2-1.5-0.2-2.7,0-2.8c0.1,0,0.4,1.2,0.6,2.7
						C601,253.8,601,255.1,600.9,255.1z"/>
				</g>
			</g>
			<g>
				<g>
					<path class="st16" d="M609.7,255.3c-0.1,0-0.5-1.2-0.6-2.8c-0.1-1.6,0.1-2.8,0.2-2.8c0.1,0,0.2,1.3,0.3,2.8
						C609.7,254,609.8,255.3,609.7,255.3z"/>
				</g>
			</g>
			<g>
				<g>
					<path class="st16" d="M615.7,254.1c-0.1,0-0.3-1-0.3-2.2c0-1.2,0.1-2.2,0.2-2.2c0.1,0,0.3,1,0.3,2.2
						C616,253.1,615.9,254.1,615.7,254.1z"/>
				</g>
			</g>
			<g>
				<g>
					<path class="st16" d="M623.8,254.6c-0.1,0-0.5-1.2-0.6-2.8c-0.1-1.6,0.1-2.8,0.2-2.8c0.1,0,0.2,1.3,0.3,2.8
						C623.8,253.4,624,254.6,623.8,254.6z"/>
				</g>
			</g>
			<g>
				<g>
					<path class="st16" d="M630,253.8c-0.1,0-0.4-1.3-0.6-2.9c-0.2-1.6-0.2-2.9,0-2.9c0.1,0,0.4,1.3,0.6,2.9
						C630.1,252.5,630.1,253.8,630,253.8z"/>
				</g>
			</g>
			<g>
				<g>
					<path class="st16" d="M635.3,254.4c-0.1,0,0-1.4,0.2-3.2c0.3-1.7,0.6-3.1,0.8-3.1c0.1,0,0,1.4-0.2,3.2
						C635.8,253.1,635.5,254.4,635.3,254.4z"/>
				</g>
			</g>
			<g>
				<g>
					<path class="st16" d="M575,256.3c-0.1,0.1-1.4-1.5-2.1-3.9c-0.8-2.4-0.6-4.5-0.5-4.4c0.2,0,0.2,2,1,4.3
						C574,254.5,575.1,256.2,575,256.3z"/>
				</g>
			</g>
			<g class="st19">
				<g>
					<path d="M570,231.9c1.5,2.2,4.6,2.4,7.2,1.9c6.2-1.1,11.7-4.6,16.2-8.9c4.5-4.3,8.1-9.5,11.6-14.7c-5.1,4.8-10.2,9.5-16,13.4
						c-5.8,3.9-12.3,7-19.2,7.9"/>
				</g>
			</g>
			<g>
				<g>
					<path class="st16" d="M632,171.7c0,0,0.1,0.2,0.2,0.6c0.1,0.4,0.2,1,0.4,1.7c0.3,1.5,0.7,3.6,1.1,6.2c0.9,5.3,2,12.5,3.2,20.6
						c1.1,8.1,2.1,15.4,2.6,20.7c0.3,2.7,0.5,4.8,0.6,6.3c0.1,0.7,0.1,1.3,0.1,1.7c0,0.4,0,0.6,0,0.6c0,0-0.1-0.2-0.1-0.6
						c-0.1-0.4-0.1-1-0.2-1.7c-0.2-1.5-0.5-3.7-0.8-6.3c-0.7-5.3-1.7-12.6-2.8-20.7c-1.1-8.1-2.2-15.4-3-20.6
						c-0.4-2.6-0.7-4.7-1-6.2c-0.1-0.7-0.2-1.3-0.3-1.7C632,171.9,632,171.7,632,171.7z"/>
				</g>
			</g>
			<g>
				<g>
					<g>
						<g>
							<g>
								<path class="st17" d="M644.1,170.2c-3.2,0.6-3.5-3.1-9.4-2.2c-4.4,0.7-12.3,2.4-22.7,9.4l6,14l11.2-7.7l6.6,5.3
									c1.4,1.1,3.4,0.8,4.4-0.6l4-5.4c0,0,5.4,6.6,6,6.7c1.7,0.2,2.4-1.8,1.7-2.7c-0.7-0.9-8-13.5-8-13.5s4.7-1,3.6-2.5
									C647.5,171.1,647.2,169.6,644.1,170.2z"/>
							</g>
						</g>
					</g>
					<g>
						<g>
							<g>
								<g>
									<g>
										<path class="st18" d="M639.5,189.6c-0.1,0,0-0.4-0.1-1c-0.1-0.6-0.3-1.5-0.8-2.3c-0.5-0.8-1.2-1.4-1.7-1.7
											c-0.5-0.3-0.9-0.4-0.9-0.5c0,0,0.4,0,1,0.3c0.6,0.3,1.3,0.8,1.9,1.7c0.6,0.8,0.8,1.8,0.8,2.4
											C639.7,189.2,639.6,189.6,639.5,189.6z"/>
									</g>
								</g>
							</g>
						</g>
					</g>
					<g>
						<g>
							<g>
								<g>
									<g>
										<path class="st18" d="M642,186c-0.1,0-0.3-1.3-1.3-2.6c-1-1.3-2.3-1.8-2.2-1.9c0,0,0.4,0,0.8,0.3c0.5,0.2,1.1,0.7,1.6,1.4
											c0.5,0.7,0.8,1.4,0.9,1.9C642,185.6,642,186,642,186z"/>
									</g>
								</g>
							</g>
						</g>
					</g>
					<g>
						<g>
							<g>
								<g>
									<g>
										<path class="st18" d="M641.3,178.9c0,0,0.3,0.1,0.7,0.3c0.4,0.3,0.8,0.7,1.2,1.4c0.3,0.6,0.5,1.2,0.5,1.7
											c0,0.5,0,0.7-0.1,0.7c-0.1,0-0.1-1.1-0.8-2.3C642.2,179.6,641.2,179,641.3,178.9z"/>
									</g>
								</g>
							</g>
						</g>
					</g>
				</g>
				<g>
					<path class="st15" d="M565.9,156.8c0,0-5.7,3.7-7.8,13.9c-1.5,7.1,0.2,28.8-1.8,40.8c-1,5.7,0.8,11.6,4.7,15.9l0,0
						c8.6,5.5,15.3,5,20.8,1.9c16.9-9.3,30.1-26,35.9-35.4l3.6-4l-5.9-17.2l-6.8,5c-10.9,3.4-22.4,12.9-34,24.4L565.9,156.8z"/>
				</g>
				<g>
					<g>
						<path class="st16" d="M579.3,197.5c-0.1,0-0.2-1.2-0.3-3.1c-0.1-1.9-0.3-4.6-0.4-7.5c-0.1-3-0.2-5.6-0.2-7.6
							c0-1.9,0.1-3.1,0.2-3.1c0.1,0,0.1,1.2,0.2,3.1c0.1,2.1,0.2,4.7,0.3,7.5c0.1,2.9,0.2,5.6,0.3,7.5
							C579.4,196.3,579.4,197.5,579.3,197.5z"/>
					</g>
				</g>
				<g>
					<g>
						<path class="st16" d="M561,227.4c0,0,0.1,0.1,0.3,0.2c0.2,0.1,0.5,0.4,0.9,0.6c0.8,0.5,2.1,1.3,3.9,2c1.8,0.7,4,1.3,6.7,1.3
							c2.7,0,5.7-0.7,8.7-2.3c3-1.5,6.1-3.5,9.3-6c3.1-2.5,6.2-5.4,9.4-8.6c6.3-6.4,12.8-13.8,18.9-22.1c0.7-1,1.4-1.9,2.1-2.9
							l0,0.2c-2-5.9-4-11.6-5.8-16.9l0.4,0.1c-13.3,8-24.1,15.9-31.8,21.4c-3.8,2.8-6.9,5-9,6.5c-1,0.7-1.8,1.3-2.4,1.7
							c-0.3,0.2-0.5,0.3-0.6,0.4c-0.1,0.1-0.2,0.1-0.2,0.1c0,0,0.1-0.1,0.2-0.2c0.2-0.1,0.4-0.3,0.6-0.5c0.6-0.4,1.4-1,2.4-1.8
							c2.1-1.6,5.1-3.8,8.9-6.7c7.7-5.6,18.5-13.5,31.8-21.6l0.3-0.2l0.1,0.3c1.8,5.3,3.8,11,5.8,16.9l0,0.1l-0.1,0.1
							c-0.7,1-1.4,1.9-2.1,2.9c-6.1,8.4-12.6,15.8-19,22.2c-3.2,3.2-6.3,6.1-9.4,8.6c-3.1,2.5-6.3,4.5-9.4,6c-3,1.6-6.1,2.3-8.9,2.2
							c-2.7,0-5-0.7-6.8-1.4c-1.8-0.7-3-1.5-3.9-2.1c-0.4-0.3-0.7-0.5-0.9-0.7C561.1,227.5,561,227.4,561,227.4z"/>
					</g>
				</g>
				<g>
					<g>
						<path class="st16" d="M579.3,197.5c0,0.1-0.8-0.1-2.2,0c-1.3,0-3.2,0.3-5,1.2c-1.9,0.8-3.3,2-4.2,3c-0.9,1-1.4,1.7-1.4,1.6
							c0,0,0.3-0.8,1.2-1.9c0.9-1.1,2.3-2.3,4.3-3.2c1.9-0.9,3.9-1.1,5.3-1.1C578.5,197.2,579.3,197.4,579.3,197.5z"/>
					</g>
				</g>
				<g>
					<g>
						<path class="st16" d="M616.6,195.6c-0.1,0-0.5-1-1.2-2.7c-0.8-1.8-1.7-4-2.8-6.5c-1.1-2.4-2-4.6-2.8-6.4
							c-0.7-1.6-1.2-2.7-1.1-2.7c0.1,0,0.6,0.9,1.4,2.6c0.8,1.6,1.9,3.9,3,6.4c1.1,2.5,2,4.9,2.6,6.6
							C616.3,194.5,616.6,195.5,616.6,195.6z"/>
					</g>
				</g>
				<g>
					<g>
						<path class="st16" d="M620.2,186.3c0.1,0.1-1,1.2-2.5,2.4c-1.5,1.2-2.9,1.9-3,1.8c-0.1-0.1,1.2-1.1,2.7-2.2
							C618.9,187.2,620.1,186.2,620.2,186.3z"/>
					</g>
				</g>
				<g>
					<g>
						<path class="st16" d="M618.5,181.7c0.1,0.1-1.2,1.1-2.8,2.3c-1.6,1.1-3,2-3.1,1.8c-0.1-0.1,1.2-1.1,2.8-2.3
							C617,182.4,618.4,181.5,618.5,181.7z"/>
					</g>
				</g>
				<g>
					<g>
						<path class="st16" d="M616.9,176.6c0.1,0.1-1.3,1.2-3.1,2.5c-1.8,1.3-3.3,2.2-3.4,2.1c-0.1-0.1,1.3-1.2,3.1-2.5
							C615.3,177.4,616.8,176.4,616.9,176.6z"/>
					</g>
				</g>
			</g>
			<g>
				<g>
					<path class="st16" d="M604.2,161.4c-0.1,0.1-1.4-1.1-3.9-2.7c-1.2-0.8-2.8-1.6-4.6-2.4c-1.8-0.8-3.8-1.5-6-2.1
						c-4.4-1.1-8.5-1.3-11.4-1.2c-2.9,0.1-4.7,0.5-4.8,0.4c0,0,0.4-0.1,1.3-0.3c0.4-0.1,0.9-0.2,1.5-0.3c0.6-0.1,1.3-0.2,2-0.2
						c1.5-0.1,3.3-0.1,5.2,0c2,0.2,4.1,0.5,6.3,1c2.2,0.6,4.2,1.3,6,2.1c1.8,0.8,3.3,1.7,4.6,2.5c0.6,0.4,1.2,0.8,1.6,1.2
						c0.5,0.3,0.9,0.7,1.2,1C603.9,161.1,604.2,161.4,604.2,161.4z"/>
				</g>
			</g>
			<g>
				<g>
					<path class="st16" d="M625.7,149.7c0,0.1-1.4,0.3-3.6,1c-2.2,0.6-5.2,1.7-8.3,3.2c-3.1,1.6-5.7,3.3-7.5,4.7
						c-1.8,1.4-2.9,2.3-2.9,2.3c0,0,0.2-0.3,0.7-0.7c0.4-0.5,1.1-1.1,2-1.8c1.8-1.5,4.4-3.3,7.5-4.9c3.1-1.6,6.2-2.6,8.4-3.1
						c1.1-0.3,2-0.4,2.7-0.5C625.4,149.7,625.7,149.6,625.7,149.7z"/>
				</g>
			</g>
			<g>
				<g>
					<path class="st5" d="M639.7,196.9l73.7-13.5c1.1-0.2,1.9-1.1,2-2.1l5.6-43.7c0.2-1.6-1.2-3-2.8-2.8L672,141
						c-1.1,0.1-2,1-2.1,2.1l-5.6,44.1c-0.1,1-0.9,1.9-1.9,2.1L637,195C637,195,637.4,197.3,639.7,196.9z"/>
				</g>
				<g>
					<g>
						<path class="st16" d="M674.8,142c0,0-0.2,0.1-0.6,0.4c-0.4,0.3-0.9,0.9-1.3,1.8c-0.8,1.8-0.9,4.7-1.4,8.2
							c-0.9,7.1-2.2,16.8-3.6,27.4c-0.4,2.7-0.7,5.3-1.1,7.8c-0.1,0.6-0.4,1.3-0.8,1.8c-0.4,0.5-1,0.9-1.6,1.2
							c-1.2,0.5-2.4,0.6-3.6,0.8c-4.6,0.8-8.8,1.5-12.3,2.1c-3.5,0.6-6.3,1.1-8.3,1.4c-0.9,0.1-1.7,0.3-2.3,0.4
							c-0.5,0.1-0.8,0.1-0.8,0.1c0,0,0.3-0.1,0.8-0.2c0.6-0.1,1.3-0.3,2.2-0.5c2-0.4,4.8-0.9,8.2-1.6c3.5-0.6,7.6-1.4,12.2-2.3
							c1.1-0.2,2.4-0.4,3.5-0.8c0.5-0.2,1-0.5,1.4-1c0.4-0.5,0.6-1,0.7-1.6c0.4-2.5,0.7-5.1,1.1-7.8c1.5-10.7,2.8-20.4,3.7-27.4
							c0.2-1.7,0.5-3.3,0.7-4.7c0.2-1.4,0.5-2.6,0.9-3.5c0.4-0.9,1-1.5,1.4-1.8C674.6,142.1,674.8,142,674.8,142z"/>
					</g>
				</g>
				<g>
					<g>
						<path class="st16" d="M720.5,135.6c0,0-0.2,0.1-0.5,0.1c-0.4,0.1-0.8,0.1-1.3,0.2c-1.2,0.2-2.9,0.4-4.9,0.7
							c-4.1,0.6-9.8,1.4-16.1,2.4c-6.3,1-12,1.8-16.1,2.3c-2.1,0.3-3.7,0.5-4.9,0.6c-0.5,0-1,0.1-1.3,0.1c-0.3,0-0.5,0-0.5,0
							c0,0,0.2-0.1,0.5-0.1c0.4-0.1,0.8-0.1,1.3-0.2c1.2-0.2,2.9-0.4,4.9-0.7c4.2-0.6,9.9-1.5,16.1-2.5c6.3-1,12-1.8,16.1-2.2
							c2.1-0.2,3.8-0.4,4.9-0.5c0.5,0,1-0.1,1.3-0.1C720.3,135.6,720.5,135.6,720.5,135.6z"/>
					</g>
				</g>
				<g>
					<path class="st4" d="M697,146.4c0.7,0,1.3,0.6,1.4,1.3c0,0.7-0.6,1.3-1.3,1.4c-0.7,0-1.3-0.6-1.4-1.3S696.3,146.4,697,146.4"/>
				</g>
			</g>
			<g>
				<path class="st17" d="M678.9,190.5c0,0,2.3-4,4.2-4.2c1.9-0.2,6.7-1.4,6.7-1.4s2.2-1.9,3.3-3.9c1-1.9,2.4-4.2,3.3-3.9
					c0.8,0.3,1.1,0.5,0.6,2.2c-0.5,1.7-1.8,5.2-1.8,5.2h1.7c0,0,1.9-8.8,4.3-8.7c0,0,1.1,0.6,1,1.5c0,0,1.2-2.5,1.9-2
					c0.7,0.5,0.7,2.6,0.5,4.8c-0.2,2.1-0.4,3.5-0.4,3.5l1.7-0.6c0,0,4.2-8.8,5.4-8.6c1.2,0.2,1.2,1.6,0.8,2.7
					c-0.4,1.1-2.7,6.6-2.7,6.6s-7.8,4.4-9.4,5.1c-1.5,0.7-14.2,7.8-14.2,7.8L678.9,190.5z"/>
			</g>
		</g>
		<g>
			<g>
				<path class="st5" d="M571.2,267.8c0.1-1.2,1.4-1.9,2.5-1.5c5,2.1,17.6,6.9,26,6c10.8-1.1,19-8.2,26-6.3c7,1.9,11.7,5.6,13.2,4.1
					c1.5-1.5-1-15.8-1-15.8l-65.9-0.6c0,0-1.4,9.8-2.2,12.9C569.4,268.5,571.2,267.8,571.2,267.8L571.2,267.8z"/>
			</g>
			<g>
				<g>
					<path class="st1" d="M639.2,268.4c0,0-0.2-0.1-0.7-0.2c-0.5-0.2-1.1-0.4-1.9-0.7c-1.7-0.6-4.1-1.6-7.2-2.3
						c-1.5-0.4-3.3-0.7-5.1-0.9c-1.9-0.1-3.9,0-5.9,0.3c-4.2,0.7-8.5,2.3-13.3,3.6c-4.7,1.3-9.5,1.5-13.7,0.9
						c-4.2-0.6-7.9-2-10.7-3.5c-1.4-0.7-2.7-1.4-3.9-1.9c-1.2-0.5-2.2-0.9-3.1-1.1c-1.7-0.4-2.7-0.3-2.7-0.4c0,0,1-0.2,2.8,0.2
						c0.9,0.2,1.9,0.5,3.1,1c1.2,0.5,2.5,1.1,3.9,1.8c2.8,1.4,6.4,2.8,10.6,3.3c4.2,0.6,8.8,0.4,13.5-0.9c4.7-1.2,9.1-2.9,13.3-3.5
						c2.1-0.3,4.1-0.4,6-0.2c1.9,0.2,3.6,0.5,5.2,0.9c3.1,0.8,5.5,1.8,7.2,2.5c0.8,0.3,1.4,0.6,1.9,0.8
						C639,268.3,639.2,268.4,639.2,268.4z"/>
				</g>
			</g>
			<g>
				<g>
					<path class="st1" d="M639.2,264.6c0,0-0.2,0-0.7-0.2c-0.5-0.1-1.2-0.3-2-0.6c-1.8-0.5-4.2-1.3-7.3-2.1
						c-3.1-0.9-6.7-2.1-10.9-2.2c-2.1-0.1-4.3,0.2-6.5,0.8c-2.2,0.6-4.4,1.5-6.7,2.4c-2.3,0.9-4.5,1.7-6.8,2.1
						c-2.3,0.4-4.6,0.4-6.7-0.1c-2.1-0.4-4-1.2-5.7-1.9c-1.7-0.7-3.3-1.4-4.8-2c-1.5-0.6-2.8-1.1-4.1-1.4c-1.2-0.3-2.3-0.5-3.2-0.6
						c-0.4,0-0.8-0.1-1.2-0.1c-0.3,0-0.6,0-0.9,0c-0.5,0-0.7,0-0.7,0c0,0,0.2-0.1,0.7-0.1c0.2,0,0.5-0.1,0.9-0.1c0.4,0,0.8,0,1.2,0
						c0.9,0.1,2,0.2,3.2,0.5c1.2,0.3,2.6,0.8,4.1,1.4c3,1.1,6.4,2.9,10.5,3.8c2,0.4,4.3,0.5,6.5,0c2.2-0.4,4.5-1.2,6.7-2.1
						c2.3-0.9,4.5-1.8,6.7-2.4c2.2-0.6,4.5-0.8,6.6-0.7c4.3,0.2,8,1.4,11,2.4c3,1,5.5,1.7,7.2,2.3c0.8,0.3,1.5,0.5,2,0.7
						C638.9,264.5,639.2,264.6,639.2,264.6z"/>
				</g>
			</g>
			<g>
				<g>
					<path class="st1" d="M638.5,259.1c0,0-0.9,0.4-2.6,0.6c-1.7,0.2-4.3-0.1-7.2-1c-1.5-0.4-3.1-0.9-4.8-1.4
						c-1.7-0.4-3.6-0.8-5.6-1.1c-4-0.5-8.5-0.5-13.1,0.3c-4.6,0.8-9,2-13.1,1.8c-2.1,0-4-0.4-5.7-0.9c-1.7-0.5-3.3-1-4.8-1.4
						c-2.9-0.8-5.4-1.1-7.1-0.9c-1.7,0.2-2.6,0.5-2.6,0.5c0,0,0.2-0.1,0.6-0.3c0.4-0.1,1.1-0.3,1.9-0.4c1.7-0.2,4.3-0.1,7.2,0.8
						c3,0.7,6.4,2.2,10.5,2.2c4,0.1,8.4-1.1,13-1.9c4.6-0.8,9.2-0.8,13.2-0.3c2,0.3,3.9,0.7,5.7,1.1c1.8,0.5,3.3,1,4.8,1.5
						c2.9,0.9,5.4,1.3,7.1,1.2C637.6,259.4,638.5,259,638.5,259.1z"/>
				</g>
			</g>
		</g>
	</g>
</g>
<g >
	<g>
		<g>
			<path class="st16" d="M138.8,384.9c1.1-3.9,3.5-7.7,7.3-9.3c3.9-1.7,8.4-0.7,12.4,0.7c4,1.4,7.9,3.4,12.1,3.6
				c4.2,0.3,9-1.7,10.2-5.8c1.2-3.8-1.1-7.8-4-10.6c-6-5.8-15.1-8.2-23.2-6.3c-8.1,1.9-15.1,8.2-17.8,16.1"/>
		</g>
		<g>
			<path class="st5" d="M105.3,401.9c-6.2-5.9-5.9-16.1-2.8-24.1s9.8-14.1,17.4-18.1c14.6-7.8,32.8-8.4,47.9-1.6
				c-7.4,0.2-14.6,4.4-18.4,10.8c-3.4,5.6-4.1,12.5-6.9,18.4c-3.1,6.6-8.9,12-15.7,14.7C120,404.7,112.1,404.6,105.3,401.9"/>
		</g>
		<g>
			<path class="st5" d="M102.4,366.5c-6.9-8.1-7.8-21.1-6.8-31.6c1-10.6,3.5-21.2,1.8-31.6c-1-6.2-3.4-12.1-4.2-18.4
				c-0.8-6.2,0.3-13.3,5.2-17.3c5.5-4.6,14.3-3.5,20.1,0.8c5.8,4.3,9.1,11.2,11.6,17.9c5.4,14.9,7.3,31.5,2.9,46.7
				c-4.4,15.2-14.8,28.9-29.9,33.5"/>
		</g>
		<g>
			<g>
				<path class="st16" d="M99.1,432.9c0,0,0-0.1,0-0.2c0-0.2,0-0.4,0-0.7c0-0.6,0-1.5,0.1-2.7c0.1-2.3,0.3-5.7,0.8-9.8
					c0.5-4.1,1.3-9,2.6-14.3c1.3-5.4,3.5-11.1,6.5-16.6c3.1-5.6,6.9-10.3,10.7-14.3c3.8-4,7.7-7,11.2-9.3c1.7-1.2,3.4-2.1,4.8-2.9
					c1.5-0.8,2.7-1.4,3.8-1.9c1-0.4,1.9-0.8,2.5-1c0.3-0.1,0.5-0.2,0.6-0.3c0.1-0.1,0.2-0.1,0.2-0.1c0,0-0.1,0-0.2,0.1
					c-0.2,0.1-0.4,0.2-0.6,0.3c-0.6,0.3-1.4,0.7-2.4,1.1c-1,0.5-2.3,1.2-3.7,2c-1.4,0.9-3,1.8-4.7,3c-3.4,2.3-7.3,5.4-11.1,9.4
					c-3.8,3.9-7.5,8.7-10.6,14.2c-3.1,5.5-5.2,11.2-6.5,16.5c-1.3,5.3-2.2,10.2-2.7,14.3c-0.6,4.1-0.8,7.4-1,9.8
					c-0.1,1.1-0.1,2-0.2,2.7c0,0.3,0,0.5,0,0.7C99.1,432.8,99.1,432.9,99.1,432.9z"/>
			</g>
		</g>
		<g>
			<g>
				<path class="st16" d="M40,334.6c-12.7,7.7-12.6,14.6-10.5,21.2c2.1,6.6,9.9,11.1,16.4,8.7c3.6-1.4,6.3-4.6,8.5-7.7
					c2.3-3.2,4.4-6.6,7.5-8.9c3.2-2.3,7.7-3.2,10.9-0.9"/>
			</g>
			<g>
				<path class="st5" d="M30.5,343c3.3-4.6,11.5-5.9,16.7-3.6c5.2,2.3,9,6.8,12.4,11.3c3.4,4.5,6.7,9.3,11.4,12.5
					c4.7,3.1,11.3,4.3,15.9,1.1c3.1-2.1,4.9-5.7,5.4-9.4c0.6-3.7,0-7.4-0.7-11.1c-1.1-5.3-2.9-10.9-7.2-14.2
					c-4.7-3.8-11.3-3.9-17.4-3.7c-6.9,0.2-14,0.7-20.5,3.2C39.9,331.4,33.2,336.6,30.5,343"/>
			</g>
			<g>
				<g>
					<path class="st16" d="M88.5,422.7c0,0,0-0.1,0-0.3c0-0.2,0-0.5,0-0.8c0-0.8-0.1-1.8-0.1-3.1c-0.1-2.8-0.2-6.7-0.3-11.6
						c-0.2-4.9-0.3-10.7-0.7-17.2c-0.4-6.4-0.8-13.5-1.8-20.9c-0.5-3.7-1.1-7.3-2.1-10.6c-1-3.3-2.4-6.5-3.9-9.3
						c-1.5-2.8-3.2-5.4-4.9-7.7c-1.8-2.3-3.6-4.2-5.4-5.9c-3.6-3.3-7-5.3-9.5-6.5c-0.6-0.3-1.2-0.6-1.6-0.8
						c-0.5-0.2-0.9-0.3-1.2-0.5c-0.3-0.1-0.6-0.2-0.8-0.3c-0.2-0.1-0.3-0.1-0.3-0.1c0,0,0.1,0,0.3,0.1c0.2,0.1,0.5,0.2,0.8,0.3
						c0.4,0.1,0.8,0.3,1.3,0.4c0.5,0.2,1,0.4,1.7,0.7c2.5,1.1,6,3.1,9.7,6.4c1.8,1.7,3.7,3.6,5.5,5.9c1.8,2.3,3.5,4.9,5,7.7
						c1.5,2.9,2.9,6,4,9.4c1,3.4,1.6,7,2.1,10.7c1,7.4,1.4,14.5,1.8,21c0.3,6.5,0.5,12.3,0.6,17.2c0.1,4.9,0.1,8.8,0.2,11.6
						c0,1.3,0,2.4,0,3.1c0,0.3,0,0.6,0,0.8C88.5,422.7,88.5,422.7,88.5,422.7z"/>
				</g>
			</g>
		</g>
		<g>
			<g>
				<path class="st16" d="M93.1,428.5c0,0,0-0.1-0.1-0.3c-0.1-0.3-0.2-0.6-0.3-1c-0.3-0.9-0.6-2.3-0.9-4.1
					c-0.7-3.6-1.2-8.8-0.6-15.3c0.5-6.5,2.2-14,4.8-22.2c2.6-8.2,6.1-16.9,9.2-26.3c1.5-4.7,2.8-9.3,3.6-13.9
					c0.9-4.6,1.4-9,1.8-13.3c0.7-8.5,0.6-16.2,0.4-22.7c-0.2-6.5-0.6-11.7-0.8-15.3c-0.1-1.8-0.2-3.2-0.2-4.2c0-0.5,0-0.8-0.1-1.1
					c0-0.2,0-0.4,0-0.4c0,0,0,0.1,0.1,0.4c0,0.3,0.1,0.6,0.1,1.1c0.1,1,0.2,2.4,0.3,4.1c0.3,3.6,0.7,8.8,0.9,15.3
					c0.3,6.5,0.4,14.2-0.3,22.7c-0.3,4.3-0.9,8.7-1.8,13.3c-0.9,4.6-2.1,9.3-3.6,14c-3,9.4-6.6,18.1-9.2,26.2
					c-2.7,8.1-4.3,15.6-4.9,22.1c-0.6,6.4-0.2,11.7,0.4,15.2c0.3,1.8,0.6,3.2,0.9,4.1c0.1,0.4,0.2,0.8,0.3,1.1
					C93.1,428.4,93.1,428.5,93.1,428.5z"/>
			</g>
		</g>
		<g>
			<polygon class="st16" points="124.5,434.2 65,434.2 63.6,422.7 124.5,422.7 			"/>
		</g>
		<g>
			<polygon class="st16" points="71.4,432.9 78.8,467.3 111.2,467.3 118.1,432.9 			"/>
		</g>
		<g>
			<g>
				<path class="st5" d="M124.5,434.2c0,0.1-13.1,0.2-29.2,0.2c-16.1,0-29.2-0.2-29.2-0.3c0-0.1,13.1-0.2,29.2-0.2
					C111.4,433.9,124.5,434.1,124.5,434.2z"/>
			</g>
		</g>
		<g>
			<g>
				<path class="st5" d="M114.3,451.2c-0.1,0.1-1.7-1.6-5.2-3c-1.7-0.7-3.9-1.2-6.4-1.3c-2.5-0.1-5.1,0.5-7.8,1.4
					c-2.7,0.9-5.2,2-7.7,2.6c-2.5,0.5-4.8,0.5-6.7,0.2c-1.9-0.3-3.3-0.8-4.3-1.3c-0.5-0.3-0.8-0.5-1-0.7c-0.2-0.2-0.3-0.3-0.3-0.3
					c0,0,0.5,0.3,1.5,0.7c0.9,0.4,2.4,0.9,4.2,1.2c1.8,0.2,4.1,0.2,6.5-0.3c2.4-0.6,4.9-1.7,7.7-2.6c2.7-0.9,5.5-1.5,8-1.4
					c2.5,0.1,4.8,0.7,6.5,1.4c1.8,0.7,3,1.6,3.9,2.3c0.4,0.3,0.7,0.6,0.9,0.8C114.2,451.1,114.3,451.2,114.3,451.2z"/>
			</g>
		</g>
		<g>
			<g>
				<path class="st4" d="M113.9,453.5c-0.1,0.1-1.7-1.6-5-3c-1.7-0.7-3.8-1.2-6.2-1.3c-2.4-0.1-5,0.5-7.6,1.4
					c-2.6,0.9-5.1,1.9-7.4,2.5c-2.3,0.6-4.6,0.9-6.4,0.7c-1.8-0.1-3.3-0.6-4.2-1.1c-0.4-0.3-0.8-0.5-1-0.6c-0.2-0.2-0.3-0.3-0.3-0.3
					c0,0,0.5,0.3,1.4,0.7c0.9,0.4,2.3,0.9,4.1,0.9c1.8,0.1,4-0.2,6.3-0.8c2.3-0.6,4.7-1.7,7.4-2.6c2.6-0.9,5.3-1.4,7.8-1.3
					c2.4,0.1,4.6,0.7,6.3,1.4c1.7,0.7,2.9,1.6,3.7,2.2c0.4,0.3,0.7,0.6,0.9,0.8C113.8,453.4,113.9,453.5,113.9,453.5z"/>
			</g>
		</g>
		<g>
			<g>
				<path class="st4" d="M114.9,448.9c0,0-0.5-0.4-1.4-1c-0.9-0.6-2.2-1.5-4-2.2c-1.8-0.8-4-1.4-6.5-1.6c-2.5-0.2-5.3,0.5-8.1,1.4
					c-2.8,0.9-5.4,2.1-8,2.6c-2.6,0.5-4.9,0.3-6.9,0c-1.9-0.3-3.4-0.9-4.4-1.4c-0.5-0.3-0.8-0.5-1.1-0.7c-0.2-0.2-0.3-0.3-0.3-0.3
					c0,0,0.5,0.3,1.5,0.8c1,0.4,2.5,0.9,4.4,1.2c1.9,0.3,4.2,0.4,6.7-0.1c2.5-0.5,5.1-1.7,7.9-2.6c2.8-1,5.7-1.6,8.3-1.4
					c2.6,0.2,4.9,0.9,6.7,1.7c1.8,0.8,3.1,1.7,4,2.4c0.4,0.3,0.8,0.6,1,0.8C114.8,448.8,114.9,448.9,114.9,448.9z"/>
			</g>
		</g>
	</g>
</g>
</svg>
