<svg id="prefix__Layer_1" data-name="Layer 1" xmlns="http://www.w3.org/2000/svg" viewBox="0 0 122.88 122.88"><defs><style>.prefix__cls-1{fill:#1195cf}</style></defs><path class="prefix__cls-1" d="M4.31 4.31v114.26h114.26V4.31zM0 0h122.88v122.88H0V0z"/><path class="prefix__cls-1" d="M28.21 27.29H38.3Q47.53 52.4 56.79 77.5c1 2.73 1.94 5.48 2.78 8.27.24.72.42 1.47.68 2.19 1.47-5.32 3.49-10.47 5.47-15.62L83 27.3h9.53L65 95.58h-9.54q-6.07-15.14-12.1-30.31-7.5-18.8-15-37.59c-.05-.13-.1-.27-.14-.4z"/><path d="M28.21 27.29c0 .13.09.27.14.4q7.49 18.79 15 37.59 6.06 15.16 12.1 30.31h9.54l27.51-68.3h-9.53L65.72 72.36c-2 5.15-4 10.3-5.47 15.62-.26-.72-.44-1.47-.68-2.19-.84-2.79-1.78-5.54-2.78-8.27Q47.55 52.41 38.3 27.31c-.64-.06-1.29 0-1.93 0h-8.16zm-23.9-23h114.26v114.26H4.31V4.29z"/></svg>